<svg xmlns="http://www.w3.org/2000/svg" viewBox="0 0 64 64">
  <defs>
    <linearGradient id="g" x1="0" y1="0" x2="1" y2="1">
      <stop offset="0" stop-color="#6366f1"/>
      <stop offset="1" stop-color="#a855f7"/>
    </linearGradient>
  </defs>
  <rect width="64" height="64" rx="15" fill="url(#g)"/>
  <path d="M20 25.5c0-4.4 3.9-7.5 9.4-7.5 4 0 7.3 1.5 9.2 4l-4.6 3.6c-1.1-1.4-2.7-2.2-4.6-2.2-2.1 0-3.5.9-3.5 2.2 0 4.2 13.1 1.3 13.1 10.6 0 4.7-4.1 7.8-9.9 7.8-4.4 0-8-1.7-10.1-4.6l4.7-3.5c1.3 1.7 3.2 2.6 5.4 2.6 2.3 0 3.8-.9 3.8-2.3 0-4.3-13-1.4-13-10.7z" fill="#fff"/>
</svg>
